<?xml version="1.0" encoding="UTF-8"?>
<svg width="28px" height="28px" viewBox="0 0 28 28" version="1.1" xmlns="http://www.w3.org/2000/svg" xmlns:xlink="http://www.w3.org/1999/xlink">
    <title>Combined Shape</title>
    <g id="Compositions" stroke="none" stroke-width="1" fill="none" fill-rule="evenodd">
        <g id="Composition/320/Formulaire" transform="translate(-42.000000, -258.000000)" fill="#FFFFFF">
            <g id="Group-3" transform="translate(42.000000, 258.000000)">
                <path d="M14,0 C21.7319865,0 28,6.2680135 28,14 C28,21.7319865 21.7319865,28 14,28 C6.2680135,28 0,21.7319865 0,14 C0,6.2680135 6.2680135,0 14,0 Z M14,0.430769231 C6.50592078,0.430769231 0.430769231,6.50592078 0.430769231,14 C0.430769231,21.4940792 6.50592078,27.5692308 14,27.5692308 C21.4940792,27.5692308 27.5692308,21.4940792 27.5692308,14 C27.5692308,6.50592078 21.4940792,0.430769231 14,0.430769231 Z M13.9807063,9.26153846 C15.765219,9.26153846 17.2155482,10.7143718 17.2155482,12.4994536 L17.2155482,12.4994536 L17.0576192,12.4994536 C18.2354568,12.5819751 19.1686893,13.5638669 19.1691446,14.7623633 C19.1691446,16.0144133 18.1507727,17.0330129 16.898495,17.0330129 L16.898495,17.0330129 L16.5797344,17.0330129 L16.5797344,12.4994536 L16.5783686,12.4994536 L16.5783686,12.4898925 C16.5718807,11.0589132 15.4087831,9.89888883 13.980877,9.89888883 C12.5498976,9.89888883 11.3869708,11.0588563 11.3803122,12.4898925 L11.3803122,12.4898925 L11.3803122,16.193115 C11.3803122,16.9994352 11.8994008,17.6844204 12.6232564,17.9300498 C12.7697462,17.8853744 12.9547082,17.8791711 13.1488328,17.9204887 C13.566733,18.0034655 13.8628997,18.2620138 13.8153218,18.4973992 C13.7671179,18.7332968 13.3944623,18.8579896 12.9767898,18.7715413 C12.7855676,18.7332968 12.6166547,18.656808 12.4987912,18.5611969 C11.721382,18.3252993 11.1031539,17.7135021 10.8576951,16.9389953 C9.72305327,16.8400265 8.83068308,15.8807854 8.83068308,14.7207611 C8.83068308,13.5511756 9.74234622,12.5823735 10.8925818,12.4994536 L10.8925818,12.4994536 L10.7427342,12.4994536 C10.7427342,10.7147702 12.1962504,9.26153846 13.9807063,9.26153846 Z M17.2170848,13.1601946 L17.2170848,16.3643044 C17.9658676,16.215595 18.5318512,15.5540004 18.5318512,14.7623633 C18.5318512,13.9707262 17.9658107,13.308904 17.2170848,13.1601946 L17.2170848,13.1601946 Z M10.742848,13.1624141 C10.0163744,13.308904 9.46814727,13.9527422 9.46814727,14.720818 C9.46814727,15.4922515 10.0160899,16.1360329 10.742848,16.2825797 L10.742848,16.2825797 Z" id="Combined-Shape"></path>
            </g>
        </g>
    </g>
</svg>