<?xml version="1.0" encoding="UTF-8" standalone="no"?>
<svg
   xmlns:dc="http://purl.org/dc/elements/1.1/"
   xmlns:cc="http://creativecommons.org/ns#"
   xmlns:rdf="http://www.w3.org/1999/02/22-rdf-syntax-ns#"
   xmlns:svg="http://www.w3.org/2000/svg"
   xmlns="http://www.w3.org/2000/svg"
   id="svg84"
   version="1.1"
   viewBox="0 0 31.585165 7.7273731"
   height="7.7273731mm"
   width="31.585165mm">
  <defs
     id="defs78" />
  <metadata
     id="metadata81">
    <rdf:RDF>
      <cc:Work
         rdf:about="">
        <dc:format>image/svg+xml</dc:format>
        <dc:type
           rdf:resource="http://purl.org/dc/dcmitype/StillImage" />
        <dc:title></dc:title>
      </cc:Work>
    </rdf:RDF>
  </metadata>
  <g
     transform="translate(-64.33837,-53.588686)"
     id="layer1">
    <path
       style="stroke-width:0.264583"
       fill="#F7F7F7"
       d="m 80.831437,55.390251 v 4.508764 c -0.170127,1.955536 -3.808942,1.874574 -4.117446,-0.165364 h 1.482725 c 0,0 0.124354,0.370946 0.712258,0.396346 h 0.01905 c 0.109802,-0.0013 0.659606,-0.03254 0.662517,-0.519377 v -0.481807 c -0.783696,0.694532 -2.710127,0.155311 -2.773892,-1.633802 -0.06879,-1.91426 1.922992,-2.528358 2.773892,-1.679575 V 55.390251 Z M 67.790124,57.78473 v 1.883833 H 67.451987 V 57.78473 h 0.337608 z m 6.847417,-2.543175 c 1.1811,0 2.167202,1.02526 2.016125,2.531269 l -2.680229,0.0011 c 0,0.34237 0.246327,0.68527 0.719666,0.68527 0.373063,0 0.553509,-0.150018 0.618596,-0.280458 h 1.267354 c -0.233362,0.813857 -0.877887,1.390119 -1.807633,1.418694 -1.213115,0.03704 -2.133071,-0.80301 -2.134129,-2.251604 -7.94e-4,-1.288256 0.988483,-2.104231 2.00025,-2.104231 z m 19.550856,-1.3462 v 5.582708 h -1.283758 v -0.346868 c -0.220398,0.170391 -0.442119,0.271197 -0.708554,0.299772 -1.1303,0.08811 -1.889919,-0.839258 -1.881188,-1.972204 0,-0.865716 0.565415,-1.969293 1.8923,-1.937279 0,0 0.432858,0.03572 0.697442,0.226219 v -1.852348 z m -6.301317,1.496483 v 0.384704 c 1.374246,-0.878416 2.193396,0.02858 2.193396,0.642938 v 3.058583 h -1.249891 v -2.408766 c 0,-0.621771 -0.943505,-0.582877 -0.943505,0 v 2.408766 h -1.271852 v -4.086225 z m -4.242064,-0.06932 v 0.984779 c 0,0 -1.167871,0.06588 -1.177396,1.08638 v 2.084387 h -1.324504 v -4.084902 h 1.320535 v 0.418571 c 0,0 0.531813,-0.489215 1.181365,-0.489215 z m 1.1557,5.29e-4 c 0,0 0.828675,0.03043 1.178454,0.412221 0.250825,0.272786 0.351631,0.418042 0.351631,0.961761 v 2.780506 h -1.20015 v -0.256646 c 0,0 -0.288131,0.236538 -0.786606,0.236538 -0.518583,0 -1.389063,-0.308504 -1.389063,-1.38139 0,-1.212585 0.934773,-1.495954 1.402028,-1.487752 0.424656,0.0074 0.718079,0.181504 0.718079,0.181504 0,0 0.07488,-0.486304 -0.533136,-0.508 -0.475456,-0.0164 -0.591608,0.0127 -0.591608,0.0127 V 55.323047 Z M 72.422184,53.895884 v 5.58165 H 71.18658 v -5.58165 z m -6.690783,0.148167 v 3.741208 h 1.531938 v 1.430073 H 64.33837 v -5.171281 h 1.393296 z m 3.637492,-0.0016 v 5.171017 H 67.976126 V 55.47226 h -1.532731 v -1.429809 z m 15.241323,3.409421 c -0.294746,0 -0.533136,0.23495 -0.533136,0.523081 0,0.290248 0.238125,0.525463 0.533136,0.525463 0.294216,0 0.531812,-0.235479 0.531812,-0.525463 0,-0.288395 -0.237596,-0.523081 -0.531812,-0.523081 z m 7.580048,-0.764646 c -0.441854,0 -0.801159,0.353748 -0.801159,0.788988 0,0.433387 0.359305,0.786606 0.801159,0.786606 0.442648,0 0.800893,-0.353219 0.800893,-0.786606 0,-0.43524 -0.358245,-0.788723 -0.800893,-0.788723 z m -13.371248,-0.03784 c -0.441325,0 -0.800894,0.354012 -0.800894,0.790575 0,0.433917 0.359833,0.788458 0.800894,0.788458 0.443177,0 0.803275,-0.354541 0.803275,-0.788458 0,-0.436563 -0.359834,-0.790575 -0.803275,-0.790575 z m -4.180152,-0.332581 c -0.354542,0 -0.645584,0.261937 -0.685271,0.600604 H 75.32387 C 75.28471,56.578742 74.993141,56.316805 74.638864,56.316805 Z M 66.255012,53.58895 v 1.883569 h -0.336021 v -1.883833 h 0.336021 z m 29.015531,0.306917 c 0.359833,0 0.652992,0.287867 0.652992,0.642144 0,0.355071 -0.293159,0.642937 -0.652992,0.642937 -0.359304,0 -0.651933,-0.287866 -0.651933,-0.642937 0,-0.354277 0.292629,-0.642144 0.651933,-0.642144 z m 0,0.09234 c -0.307446,0 -0.558271,0.246591 -0.558271,0.549804 0,0.304271 0.250825,0.550862 0.558271,0.550862 0.307975,0 0.5588,-0.246591 0.5588,-0.550862 0,-0.303213 -0.250825,-0.549804 -0.5588,-0.549804 z m 0.05556,0.204787 c 0.111655,0 0.224367,0.03836 0.224367,0.180181 0,0.09975 -0.05133,0.136525 -0.09525,0.16219 0.03916,0.01588 0.07805,0.03281 0.08202,0.126471 l 0.0056,0.122237 c 0.0013,0.03784 0.0058,0.05186 0.0344,0.06773 v 0.01508 h -0.113242 c -0.01349,-0.04127 -0.0164,-0.143933 -0.0164,-0.169333 0,-0.0553 -0.01164,-0.119856 -0.121708,-0.119856 h -0.222779 v 0.289189 h -0.09313 V 54.19299 Z m 0.0061,0.07779 h -0.229129 v 0.228335 h 0.213518 c 0.0672,0 0.138907,-0.01667 0.138907,-0.116417 0,-0.103187 -0.07726,-0.111918 -0.123296,-0.111918 z"
       id="path12" />
  </g>
</svg>
